<svg id="Layer_1" data-name="Layer 1" xmlns="http://www.w3.org/2000/svg" xmlns:xlink="http://www.w3.org/1999/xlink" viewBox="0 0 277.75 132.46"><defs><style>.cls-1,.cls-138{fill:none;}.cls-1{clip-rule:evenodd;}.cls-2{clip-path:url(#clip-path);}.cls-3,.cls-4{fill:#ed1c24;}.cls-10,.cls-100,.cls-101,.cls-102,.cls-103,.cls-104,.cls-105,.cls-106,.cls-107,.cls-108,.cls-109,.cls-11,.cls-110,.cls-111,.cls-112,.cls-113,.cls-114,.cls-115,.cls-116,.cls-117,.cls-118,.cls-119,.cls-12,.cls-120,.cls-121,.cls-122,.cls-123,.cls-124,.cls-125,.cls-126,.cls-127,.cls-128,.cls-129,.cls-13,.cls-130,.cls-131,.cls-132,.cls-133,.cls-134,.cls-135,.cls-136,.cls-137,.cls-14,.cls-15,.cls-16,.cls-17,.cls-18,.cls-19,.cls-20,.cls-21,.cls-22,.cls-23,.cls-24,.cls-25,.cls-26,.cls-27,.cls-28,.cls-29,.cls-30,.cls-31,.cls-32,.cls-33,.cls-34,.cls-35,.cls-36,.cls-37,.cls-38,.cls-39,.cls-4,.cls-40,.cls-41,.cls-42,.cls-43,.cls-44,.cls-45,.cls-46,.cls-47,.cls-48,.cls-49,.cls-5,.cls-50,.cls-51,.cls-52,.cls-53,.cls-54,.cls-55,.cls-56,.cls-57,.cls-58,.cls-59,.cls-6,.cls-60,.cls-61,.cls-62,.cls-63,.cls-64,.cls-65,.cls-66,.cls-67,.cls-68,.cls-69,.cls-7,.cls-70,.cls-71,.cls-72,.cls-73,.cls-74,.cls-75,.cls-76,.cls-77,.cls-78,.cls-79,.cls-8,.cls-80,.cls-81,.cls-82,.cls-83,.cls-84,.cls-85,.cls-86,.cls-87,.cls-88,.cls-89,.cls-9,.cls-90,.cls-91,.cls-92,.cls-93,.cls-94,.cls-95,.cls-96,.cls-97,.cls-98,.cls-99{fill-rule:evenodd;}.cls-5{fill:#ed1d24;}.cls-6{fill:#ed1e24;}.cls-7{fill:#ed1f24;}.cls-8{fill:#ed2024;}.cls-9{fill:#ed2124;}.cls-10{fill:#ee2224;}.cls-11{fill:#ee2324;}.cls-12{fill:#ee2423;}.cls-13{fill:#ee2523;}.cls-14{fill:#ee2623;}.cls-15{fill:#ee2723;}.cls-16{fill:#ee2823;}.cls-17{fill:#ee2923;}.cls-18{fill:#ee2a23;}.cls-19{fill:#ee2b23;}.cls-20{fill:#ef2c23;}.cls-21{fill:#ef2d23;}.cls-22{fill:#ef2e23;}.cls-23{fill:#ef2f23;}.cls-24{fill:#ef3023;}.cls-25{fill:#ef3123;}.cls-26{fill:#ef3223;}.cls-27{fill:#ef3322;}.cls-28{fill:#ef3422;}.cls-29{fill:#ef3522;}.cls-30{fill:#f03622;}.cls-31{fill:#f03722;}.cls-32{fill:#f03822;}.cls-33{fill:#f03922;}.cls-34{fill:#f03a22;}.cls-35{fill:#f03b22;}.cls-36{fill:#f03c22;}.cls-37{fill:#f03d22;}.cls-38{fill:#f03e22;}.cls-39{fill:#f03f22;}.cls-40{fill:#f14022;}.cls-41{fill:#f14121;}.cls-42{fill:#f14221;}.cls-43{fill:#f14321;}.cls-44{fill:#f14421;}.cls-45{fill:#f14521;}.cls-46{fill:#f14621;}.cls-47{fill:#f14721;}.cls-48{fill:#f14821;}.cls-49{fill:#f14921;}.cls-50{fill:#f14a21;}.cls-51{fill:#f24b21;}.cls-52{fill:#f24c21;}.cls-53{fill:#f24d21;}.cls-54{fill:#f24e21;}.cls-55{fill:#f24f21;}.cls-56{fill:#f25020;}.cls-57{fill:#f25120;}.cls-58{fill:#f25220;}.cls-59{fill:#f25320;}.cls-60{fill:#f25420;}.cls-61{fill:#f35520;}.cls-62{fill:#f35620;}.cls-63{fill:#f35720;}.cls-64{fill:#f35820;}.cls-65{fill:#f35920;}.cls-66{fill:#f35a20;}.cls-67{fill:#f35b20;}.cls-68{fill:#f35c20;}.cls-69{fill:#f35d20;}.cls-70{fill:#f35e20;}.cls-71{fill:#f4601f;}.cls-72{fill:#f4611f;}.cls-73{fill:#f4621f;}.cls-74{fill:#f4631f;}.cls-75{fill:#f4641f;}.cls-76{fill:#f4651f;}.cls-77{fill:#f4661f;}.cls-78{fill:#f4671f;}.cls-79{fill:#f4681f;}.cls-80{fill:#f4691f;}.cls-81{fill:#f56a1f;}.cls-82{fill:#f56b1f;}.cls-83{fill:#f56c1f;}.cls-84{fill:#f56d1f;}.cls-85{fill:#f56e1f;}.cls-86{fill:#f56f1e;}.cls-87{fill:#f5701e;}.cls-88{fill:#f5711e;}.cls-89{fill:#f5721e;}.cls-90{fill:#f5731e;}.cls-91{fill:#f6741e;}.cls-92{fill:#f6751e;}.cls-93{fill:#f6761e;}.cls-94{fill:#f6771e;}.cls-95{fill:#f6781e;}.cls-96{fill:#f6791e;}.cls-97{fill:#f67a1e;}.cls-98{fill:#f67b1e;}.cls-99{fill:#f67c1e;}.cls-100{fill:#f67d1e;}.cls-101{fill:#f67e1d;}.cls-102{fill:#f77f1d;}.cls-103{fill:#f7801d;}.cls-104{fill:#f7811d;}.cls-105{fill:#f7821d;}.cls-106{fill:#f7831d;}.cls-107{fill:#f7841d;}.cls-108{fill:#f7851d;}.cls-109{fill:#f7861d;}.cls-110{fill:#f7871d;}.cls-111{fill:#f7881d;}.cls-112{fill:#f8891d;}.cls-113{fill:#f88a1d;}.cls-114{fill:#f88b1d;}.cls-115{fill:#f88c1c;}.cls-116{fill:#f88d1c;}.cls-117{fill:#f88e1c;}.cls-118{fill:#f88f1c;}.cls-119{fill:#f8901c;}.cls-120{fill:#f8911c;}.cls-121{fill:#f8921c;}.cls-122{fill:#f9931c;}.cls-123{fill:#f9941c;}.cls-124{fill:#f9951c;}.cls-125{fill:#f9961c;}.cls-126{fill:#f9971c;}.cls-127{fill:#f9981c;}.cls-128{fill:#f9991c;}.cls-129{fill:#f99a1c;}.cls-130{fill:#f99b1b;}.cls-131{fill:#f99c1b;}.cls-132{fill:#fa9d1b;}.cls-133{fill:#fa9e1b;}.cls-134{fill:#fa9f1b;}.cls-135{fill:#faa01b;}.cls-136{fill:#faa11b;}.cls-137{fill:#faa21b;}.cls-139{fill:#8b0800;}.cls-140{fill:#faf6ea;}.cls-141{fill:#fb9700;}.cls-142{fill:#fd9900;}.cls-143{fill:#ca8713;}.cls-144{fill:#4d4d4d;}.cls-145{fill:#8b0021;}.cls-146{fill:#faf4ea;}.cls-147{fill:#fb7300;}.cls-148{fill:#fd7500;}.cls-149{fill:#ca6f13;}</style><clipPath id="clip-path"><path class="cls-1" d="M222.29,118.65C250.22,132.3,267.22,132.45,266,76c-1.18-40.65-3.83-65.41-59.48-31.68-34.18,21.08-54.2,35.65.17,66.17,0,0-3,5.66-11,10.4,36.94-2.9,40.63-29.29,19.3-65.6l13.87-7.44c.67,2.7,7.83,18.66,8.93,22.44C243,88.39,249.57,115.54,222.29,118.65Z"/></clipPath></defs><g class="cls-2"><rect class="cls-3" x="152.32" y="10.56" width="114.89" height="121.89"/><path class="cls-4" d="M268.54,9.24H175.9V2c-1.09,2.4-2.07,4.88-2.93,7.42-13.82,40.78,6.66,84.57,45.74,97.82a73,73,0,0,0,57.37-4.67h-7.54Z"/><path class="cls-5" d="M268.54,9.24H176.41v-7c-1.08,2.39-2,4.84-2.91,7.37-13.71,40.48,6.61,83.94,45.4,97.08A72.37,72.37,0,0,0,275.84,102h-7.3Z"/><path class="cls-6" d="M268.38,9.24H176.91V2.45Q175.31,6,174,9.76c-13.61,40.17,6.56,83.31,45.06,96.35a71.88,71.88,0,0,0,56.51-4.59h-7.06V9.24Z"/><path class="cls-7" d="M268.2,9.24H177.42V2.68c-1.06,2.35-2,4.77-2.86,7.26-13.51,39.86,6.51,82.68,44.71,95.62A71.32,71.32,0,0,0,275.36,101h-6.82V9.24Z"/><path class="cls-8" d="M268,9.24H177.93V2.92a77,77,0,0,0-2.85,7.2c-13.4,39.56,6.47,82,44.38,94.89a70.76,70.76,0,0,0,55.65-4.53h-6.57V9.24Z"/><path class="cls-9" d="M267.82,9.24H178.43V3.15q-1.56,3.47-2.82,7.15c-13.3,39.25,6.41,81.41,44,94.16A70.22,70.22,0,0,0,274.87,100h-6.33V9.24Z"/><path class="cls-10" d="M267.64,9.24h-88.7V3.38c-1,2.3-2,4.67-2.8,7.1-13.2,39,6.37,80.78,43.69,93.43a69.72,69.72,0,0,0,54.8-4.46h-6.09V9.24Z"/><path class="cls-11" d="M267.45,9.24h-88V3.62c-1,2.27-1.95,4.62-2.77,7C163.57,49.3,183,90.81,220,103.36a69.14,69.14,0,0,0,54.37-4.43h-5.85V9.24Z"/><path class="cls-12" d="M267.26,9.24H180V3.85q-1.53,3.39-2.75,7c-13,38.35,6.26,79.52,43,92a68.6,68.6,0,0,0,53.94-4.39h-5.61V9.24Z"/><path class="cls-13" d="M267.08,9.24H180.45V4.09q-1.51,3.36-2.72,6.92c-12.89,38,6.21,78.89,42.66,91.25a68,68,0,0,0,53.52-4.36h-5.37V9.24Z"/><path class="cls-14" d="M266.89,9.24H181V4.32c-1,2.22-1.91,4.52-2.7,6.87-12.79,37.74,6.16,78.26,42.32,90.52a67.51,67.51,0,0,0,53.09-4.33h-5.13V9.24Z"/><path class="cls-15" d="M266.7,9.24H181.47V4.56c-1,2.2-1.89,4.48-2.69,6.81-12.68,37.43,6.12,77.63,42,89.79a67,67,0,0,0,52.65-4.29h-4.88V9.24Z"/><path class="cls-16" d="M266.52,9.24H182V4.79q-1.47,3.29-2.66,6.76c-12.58,37.13,6.06,77,41.64,89.05a66.39,66.39,0,0,0,52.23-4.25h-4.64V9.24Z"/><path class="cls-17" d="M266.33,9.24H182.48V5q-1.47,3.26-2.64,6.71c-12.48,36.82,6,76.37,41.3,88.32A65.93,65.93,0,0,0,273,95.84h-4.41V9.24Z"/><path class="cls-18" d="M266.14,9.24H183v-4q-1.46,3.22-2.61,6.65c-12.38,36.52,6,75.74,41,87.59a65.33,65.33,0,0,0,51.37-4.18h-4.16V9.24Z"/><path class="cls-19" d="M266,9.24H183.49V5.49q-1.44,3.2-2.6,6.6C168.62,48.3,186.81,87.19,221.52,99a64.75,64.75,0,0,0,50.94-4.15h-3.92V9.24Z"/><path class="cls-20" d="M265.77,9.24H184V5.73q-1.43,3.16-2.57,6.54c-12.17,35.91,5.87,74.47,40.29,86.13a64.22,64.22,0,0,0,50.51-4.11h-3.68V9.24Z"/><path class="cls-21" d="M265.58,9.24H184.5V6c-.94,2.1-1.8,4.26-2.55,6.48-12.07,35.61,5.82,73.85,39.94,85.41A63.71,63.71,0,0,0,272,93.77h-3.44V9.24Z"/><path class="cls-22" d="M265.39,9.24h-77.3V.17a69.91,69.91,0,0,0-5.61,12.46c-12,35.29,5.76,73.21,39.6,84.67a63.22,63.22,0,0,0,49.66-4h-3.2v-84Z"/><path class="cls-23" d="M265.21,9.24H188.57V.45A69.71,69.71,0,0,0,183,12.8c-11.86,35,5.71,72.58,39.25,84a62.63,62.63,0,0,0,49.23-4h-2.95V9.24Z"/><path class="cls-24" d="M265,9.24h-76V.74A69.55,69.55,0,0,0,183.53,13c-11.75,34.69,5.67,72,38.92,83.22a62.08,62.08,0,0,0,48.81-4h-2.72v-83Z"/><path class="cls-25" d="M264.83,9.24h-75.3V1a68.7,68.7,0,0,0-5.47,12.13c-11.65,34.39,5.62,71.32,38.58,82.49A61.52,61.52,0,0,0,271,91.71h-2.47V9.24Z"/><path class="cls-26" d="M264.65,9.24H190V1.31a68.61,68.61,0,0,0-5.42,12C173,47.42,190.16,84,222.83,95.09a61,61,0,0,0,47.94-3.89h-2.23v-82Z"/><path class="cls-27" d="M264.46,9.24h-74V1.6a68.06,68.06,0,0,0-5.36,11.92c-11.45,33.78,5.52,70.05,37.89,81a60.44,60.44,0,0,0,47.52-3.86h-2V9.24Z"/><path class="cls-28" d="M264.27,9.24H191V1.88a66.54,66.54,0,0,0-5.32,11.82C174.3,47.17,191.12,83.12,223.2,94a59.86,59.86,0,0,0,47.09-3.83h-1.75V9.24Z"/><path class="cls-29" d="M264.09,9.24H191.45V2.17a65.31,65.31,0,0,0-5.27,11.71c-11.25,33.17,5.41,68.79,37.21,79.56a59.36,59.36,0,0,0,46.66-3.79h-1.51V9.24Z"/><path class="cls-30" d="M263.9,9.24h-72V2.46a64.09,64.09,0,0,0-5.22,11.6c-11.14,32.86,5.36,68.16,36.86,78.83a58.79,58.79,0,0,0,46.23-3.76h-1.26V9.24Z"/><path class="cls-31" d="M263.71,9.24h-71.3V2.74a64.62,64.62,0,0,0-5.18,11.49c-11,32.57,5.32,67.54,36.53,78.11a58.28,58.28,0,0,0,45.81-3.73h-1V9.24Z"/><path class="cls-32" d="M263.53,9.24H192.88V3a64.89,64.89,0,0,0-5.12,11.39C176.83,46.67,193,81.31,223.94,91.79a57.74,57.74,0,0,0,45.38-3.69h-.78V9.24Z"/><path class="cls-33" d="M263.34,9.24h-70V3.32a63.18,63.18,0,0,0-5.08,11.27c-10.83,32,5.22,66.27,35.84,76.65a57.16,57.16,0,0,0,44.95-3.66h-.54V9.24Z"/><path class="cls-34" d="M263.15,9.24H193.84V3.6a64.11,64.11,0,0,0-5,11.17c-10.73,31.65,5.17,65.64,35.5,75.92a56.63,56.63,0,0,0,44.52-3.63h-.3V9.24Z"/><path class="cls-35" d="M263,9.24H194.33V3.89a62.59,62.59,0,0,0-5,11.06c-10.62,31.35,5.13,65,35.16,75.19a56.12,56.12,0,0,0,44.1-3.59h-.06V9.24Z"/><path class="cls-36" d="M262.78,9.24h-68V4.17a62.5,62.5,0,0,0-4.94,11c-10.51,31,5.07,64.38,34.82,74.45A55.5,55.5,0,0,0,268.36,86a59.59,59.59,0,0,0,9.39-6.09h-9.21V9.24Z"/><path class="cls-37" d="M262.59,9.24H195.28V4.46a62,62,0,0,0-4.88,10.85C180,46.05,195.42,79.05,224.88,89a55,55,0,0,0,43.23-3.51,59.24,59.24,0,0,0,9.31-6h-8.88V9.24Z"/><path class="cls-38" d="M262.41,9.24H195.76V4.75a60.7,60.7,0,0,0-4.83,10.74c-10.31,30.43,5,63.11,34.14,73A54.47,54.47,0,0,0,267.88,85a58.46,58.46,0,0,0,9.21-6h-8.55V9.24Z"/><path class="cls-39" d="M262.22,9.24h-66V5a60.61,60.61,0,0,0-4.78,10.64c-10.21,30.12,4.92,62.48,33.79,72.26a53.89,53.89,0,0,0,42.38-3.45,56.19,56.19,0,0,0,9.12-5.91h-8.21V9.24Z"/><path class="cls-40" d="M262,9.24h-65.3V5.32A59.43,59.43,0,0,0,192,15.85c-10.1,29.82,4.88,61.85,33.46,71.53A53.35,53.35,0,0,0,267.39,84a56.12,56.12,0,0,0,9-5.84h-7.88V9.24Z"/><path class="cls-41" d="M261.85,9.24H197.2V5.6A59.53,59.53,0,0,0,192.51,16c-10,29.52,4.83,61.22,33.11,70.81a52.84,52.84,0,0,0,41.53-3.38,56.18,56.18,0,0,0,8.94-5.79h-7.55V9.24Z"/><path class="cls-42" d="M261.66,9.24h-64V5.89A59,59,0,0,0,193,16.2c-9.9,29.22,4.77,60.59,32.77,70.08a52.22,52.22,0,0,0,41.1-3.35,55.65,55.65,0,0,0,8.84-5.73h-7.21v-68Z"/><path class="cls-43" d="M261.47,9.24H198.16V6.18a57.53,57.53,0,0,0-4.59,10.21c-9.8,28.9,4.72,60,32.43,69.34a51.77,51.77,0,0,0,40.67-3.31,55.67,55.67,0,0,0,8.75-5.67h-6.88V9.24Z"/><path class="cls-44" d="M261.29,9.24H198.64V6.46a57.34,57.34,0,0,0-4.54,10.1c-9.7,28.6,4.67,59.33,32.08,68.62a51.19,51.19,0,0,0,40.24-3.28,54.16,54.16,0,0,0,8.67-5.61h-6.55V9.24Z"/><path class="cls-45" d="M261.1,9.24h-62V6.75a56.1,56.1,0,0,0-4.49,10C185,45,199.25,75.44,226.37,84.63a50.69,50.69,0,0,0,39.82-3.24,54.51,54.51,0,0,0,8.56-5.56h-6.21V9.24Z"/><path class="cls-46" d="M260.91,9.24H199.6V7a55.19,55.19,0,0,0-4.44,9.88c-9.5,28,4.57,58.06,31.4,67.15a50.08,50.08,0,0,0,39.38-3.2,53.64,53.64,0,0,0,8.48-5.49h-5.88V9.24Z"/><path class="cls-47" d="M260.73,9.24H200.08V7.32a55.84,55.84,0,0,0-4.4,9.78c-9.38,27.69,4.52,57.43,31.06,66.42a49.53,49.53,0,0,0,39-3.17,53.41,53.41,0,0,0,8.39-5.43h-5.55V9.24Z"/><path class="cls-48" d="M260.54,9.24h-60V7.61a55.66,55.66,0,0,0-4.35,9.67c-9.28,27.39,4.48,56.8,30.72,65.69a49,49,0,0,0,38.53-3.13,52.48,52.48,0,0,0,8.29-5.38h-5.21V9.24Z"/><path class="cls-49" d="M260.35,9.24H201V7.89a54.5,54.5,0,0,0-4.3,9.57c-9.18,27.08,4.42,56.17,30.38,65a48.5,48.5,0,0,0,38.1-3.11,52.91,52.91,0,0,0,8.2-5.31h-4.88V9.24Z"/><path class="cls-50" d="M260.17,9.24H207.31V0a53.26,53.26,0,0,0-10.05,17.63c-9.07,26.78,4.38,55.54,30,64.24A47.94,47.94,0,0,0,265,78.81a52.54,52.54,0,0,0,8.11-5.26h-4.55V9.24Z"/><path class="cls-51" d="M260,9.24H207.73V.38a52.39,52.39,0,0,0-9.94,17.44c-9,26.47,4.33,54.9,29.7,63.5a47.34,47.34,0,0,0,37.24-3,50.15,50.15,0,0,0,8-5.19h-4.21V9.24Z"/><path class="cls-52" d="M259.79,9.24H208.14V.76A51.78,51.78,0,0,0,198.32,18c-8.87,26.17,4.28,54.28,29.36,62.78a46.84,46.84,0,0,0,36.82-3,50.53,50.53,0,0,0,7.92-5.13h-3.88V9.24Z"/><path class="cls-53" d="M259.61,9.24H208.55V1.14a51.2,51.2,0,0,0-9.7,17c-8.76,25.87,4.23,53.65,29,62.05a46.29,46.29,0,0,0,36.39-3,48.11,48.11,0,0,0,7.83-5.08h-3.54V9.24Z"/><path class="cls-54" d="M259.42,9.24H209V1.52a50.39,50.39,0,0,0-9.59,16.83c-8.67,25.57,4.17,53,28.67,61.32a45.77,45.77,0,0,0,36-2.93,49.19,49.19,0,0,0,7.74-5h-3.21V9.24Z"/><path class="cls-55" d="M259.24,9.24H209.38V1.9a49.92,49.92,0,0,0-9.48,16.63c-8.55,25.26,4.13,52.38,28.34,60.59a45.19,45.19,0,0,0,35.53-2.9,47.36,47.36,0,0,0,7.65-5h-2.88v-62Z"/><path class="cls-56" d="M259.05,9.24H209.8v-7a49.45,49.45,0,0,0-9.37,16.43c-8.45,24.95,4.08,51.75,28,59.85a44.63,44.63,0,0,0,35.11-2.85,48,48,0,0,0,14.14-11.22h-9.13V9.24Z"/><path class="cls-57" d="M258.86,9.24H210.21V2.65A48.94,48.94,0,0,0,201,18.89C192.61,43.54,205,70,228.61,78a44.06,44.06,0,0,0,34.68-2.82,47.27,47.27,0,0,0,14-11.08h-8.72V9.24Z"/><path class="cls-58" d="M258.67,9.24H210.62V3a48.18,48.18,0,0,0-9.13,16c-8.25,24.34,4,50.49,27.31,58.39A43.49,43.49,0,0,0,263,74.67a46.73,46.73,0,0,0,13.81-10.94h-8.31V9.24Z"/><path class="cls-59" d="M258.49,9.24H211V3.42a47.29,47.29,0,0,0-9,15.83c-8.15,24,3.93,49.85,27,57.66a43,43,0,0,0,33.83-2.75,46.26,46.26,0,0,0,13.62-10.81h-7.89V9.24Z"/><path class="cls-60" d="M258.3,9.24H211.45V3.79a47.1,47.1,0,0,0-8.9,15.63c-8.05,23.74,3.87,49.23,26.62,56.94a42.44,42.44,0,0,0,33.39-2.72A45.72,45.72,0,0,0,276,63h-7.48V9.24Z"/><path class="cls-61" d="M258.11,9.24H211.87V4.17a46.29,46.29,0,0,0-8.79,15.43c-8,23.43,3.82,48.6,26.28,56.21a42,42,0,0,0,33-2.68A45,45,0,0,0,275.6,62.59h-7.06V9.24Z"/><path class="cls-62" d="M257.92,9.24H212.28V4.55a45.67,45.67,0,0,0-8.68,15.24c-7.83,23.12,3.78,48,26,55.47a41.38,41.38,0,0,0,32.53-2.65,44.46,44.46,0,0,0,13.12-10.4h-6.66v-53Z"/><path class="cls-63" d="M257.74,9.24H212.69V4.93a45.16,45.16,0,0,0-8.56,15c-7.74,22.83,3.73,47.33,25.61,54.74a40.8,40.8,0,0,0,32.1-2.61,43.84,43.84,0,0,0,12.94-10.25h-6.24V9.24Z"/><path class="cls-64" d="M257.55,9.24H213.11V5.31a44.42,44.42,0,0,0-8.45,14.83c-7.63,22.52,3.68,46.7,25.26,54a40.34,40.34,0,0,0,31.68-2.58,43.3,43.3,0,0,0,12.77-10.12h-5.83V9.24Z"/><path class="cls-65" d="M257.36,9.24H213.52V5.69a44.13,44.13,0,0,0-8.34,14.63c-7.52,22.21,3.63,46.07,24.93,53.29a39.69,39.69,0,0,0,31.24-2.55,42.46,42.46,0,0,0,12.6-10h-5.41V9.24Z"/><path class="cls-66" d="M257.18,9.24H213.94V6.07a43.22,43.22,0,0,0-8.23,14.43c-7.42,21.91,3.59,45.44,24.58,52.55a39.16,39.16,0,0,0,30.83-2.51,42.26,42.26,0,0,0,12.42-9.84h-5V9.24Z"/><path class="cls-67" d="M257,9.24H214.35V6.45a42.82,42.82,0,0,0-8.11,14.23c-7.32,21.6,3.53,44.8,24.24,51.82A38.64,38.64,0,0,0,260.87,70a41.49,41.49,0,0,0,12.25-9.71h-4.58V9.24Z"/><path class="cls-68" d="M256.8,9.24h-42V6.83a42.24,42.24,0,0,0-8,14C199.55,42.16,210.25,65,230.67,72a38.11,38.11,0,0,0,30-2.44,40.74,40.74,0,0,0,12.08-9.57h-4.17V9.24Z"/><path class="cls-69" d="M256.62,9.24H215.18v-2A41.38,41.38,0,0,0,207.3,21c-7.12,21,3.43,43.55,23.55,50.38A37.64,37.64,0,0,0,260.39,69a40.32,40.32,0,0,0,11.9-9.44h-3.75V9.24Z"/><path class="cls-70" d="M256.43,9.24H215.59V7.58a41,41,0,0,0-7.76,13.64c-7,20.69,3.38,42.91,23.21,49.63a37,37,0,0,0,29.11-2.37,39.74,39.74,0,0,0,11.73-9.3h-3.34V9.24Z"/><path class="cls-71" d="M256.24,9.24H216V8a40.52,40.52,0,0,0-7.65,13.42c-6.9,20.39,3.33,42.29,22.88,48.91A36.45,36.45,0,0,0,259.91,68a39.15,39.15,0,0,0,11.56-9.16h-2.93V9.24Z"/><path class="cls-72" d="M256.06,9.24H216.42V8.35a39.78,39.78,0,0,0-7.54,13.22c-6.8,20.08,3.28,41.65,22.53,48.18a36,36,0,0,0,28.25-2.3,38.51,38.51,0,0,0,11.39-9h-2.51V9.24Z"/><path class="cls-73" d="M255.87,9.24h-39V8.72a39.17,39.17,0,0,0-7.42,13c-6.7,19.78,3.23,41,22.19,47.45a35.39,35.39,0,0,0,27.83-2.27A38,38,0,0,0,270.64,58h-2.1V16.28h8a36.31,36.31,0,0,0-8.31-11.37V9.24Z"/><path class="cls-74" d="M255.68,9.24H228.29V.35a37.93,37.93,0,0,0-18.35,21.58c-6.6,19.48,3.18,40.39,21.85,46.72s39.14-4.34,45.74-23.82h-9V16.55h7.54a35.49,35.49,0,0,0-8.18-11.2V9.24Z"/><path class="cls-75" d="M255.5,9.24h-27V.86a37.38,37.38,0,0,0-18.06,21.25c-6.5,19.17,3.13,39.76,21.5,46s38.54-4.27,45-23.44h-8.46V16.81h7a35.24,35.24,0,0,0-8.06-11V9.24Z"/><path class="cls-76" d="M255.31,9.24H228.77V1.38A36.76,36.76,0,0,0,211,22.29c-6.4,18.86,3.07,39.12,21.16,45.26s37.92-4.21,44.32-23.07h-7.94V17.07h6.53a34.35,34.35,0,0,0-7.92-10.84v3Z"/><path class="cls-77" d="M255.12,9.24H229V1.9a36.2,36.2,0,0,0-17.49,20.57C205.23,41,214.56,61,232.35,67S269.66,62.86,276,44.3h-7.41v-27h6a34.06,34.06,0,0,0-7.8-10.67V9.24Z"/><path class="cls-78" d="M254.94,9.24H229.25V2.41a35.57,35.57,0,0,0-17.2,20.24c-6.19,18.25,3,37.86,20.48,43.79s36.7-4.06,42.89-22.32h-6.88V17.6h5.52A32.68,32.68,0,0,0,254.94.32Z"/><path class="cls-79" d="M254.75,9.24H229.5V2.93a34.92,34.92,0,0,0-16.92,19.89c-6.08,18,2.93,37.24,20.14,43.07s36.09-4,42.17-22h-6.35V17.86h5a32.11,32.11,0,0,0-18.81-17Z"/><path class="cls-80" d="M254.56,9.24H229.74V3.45A34.34,34.34,0,0,0,213.11,23c-6,17.65,2.88,36.61,19.8,42.34s35.47-3.93,41.46-21.58h-5.83V18.13h4.51A31.58,31.58,0,0,0,254.56,1.42Z"/><path class="cls-81" d="M254.38,9.24H230V4a33.8,33.8,0,0,0-16.35,19.22c-5.87,17.35,2.84,36,19.46,41.61S268,60.93,273.84,43.58h-5.3V18.39h4A31.07,31.07,0,0,0,254.38,2Z"/><path class="cls-82" d="M254.19,9.24h-24V4.48a33.22,33.22,0,0,0-16.06,18.88c-5.77,17,2.79,35.34,19.12,40.88s34.25-3.79,40-20.84h-4.77V18.65H272A30.5,30.5,0,0,0,254.19,2.52Z"/><path class="cls-83" d="M254,9.24H230.46V5a32.58,32.58,0,0,0-15.77,18.54c-5.67,16.74,2.73,34.71,18.78,40.15S267.11,60,272.78,43.23h-4.24V18.91h3A30,30,0,0,0,254,3.08Z"/><path class="cls-84" d="M253.82,9.24H230.7V5.51a32,32,0,0,0-15.48,18.21c-5.57,16.43,2.69,34.08,18.43,39.42s33-3.66,38.6-20.1S269.57,9,253.82,3.63Z"/><path class="cls-85" d="M253.63,9.24H230.94V6A31.37,31.37,0,0,0,215.75,23.9c-5.47,16.13,2.63,33.45,18.09,38.69s32.42-3.6,37.88-19.72S269.09,9.42,253.63,4.18Z"/><path class="cls-86" d="M253.44,9.24H231.19V6.54a30.86,30.86,0,0,0-14.91,17.54C210.91,39.9,218.86,56.89,234,62s31.8-3.52,37.16-19.34-2.58-32.82-17.75-38Z"/><path class="cls-87" d="M253.26,5.28c-14.87-5-31.2,3.45-36.46,19s2.54,32.19,17.41,37.23,31.2-3.45,36.46-19S268.14,10.32,253.26,5.28Z"/><path class="cls-88" d="M253.07,5.83C238.49.89,222.49,9.22,217.33,24.44S219.82,56,234.4,60.93s30.58-3.39,35.74-18.6S267.65,10.78,253.07,5.83Z"/><path class="cls-89" d="M252.89,6.39c-14.3-4.85-30,3.31-35,18.23s2.44,30.92,16.73,35.76,30-3.32,35-18.23S267.18,11.23,252.89,6.39Z"/><path class="cls-90" d="M252.7,6.93c-14-4.74-29.36,3.26-34.31,17.86s2.38,30.3,16.38,35S264.13,56.58,269.08,42,266.7,11.68,252.7,6.93Z"/><path class="cls-91" d="M252.51,7.48c-13.7-4.64-28.75,3.19-33.59,17.49s2.33,29.67,16,34.31,28.75-3.18,33.59-17.49S266.22,12.13,252.51,7.48Z"/><path class="cls-92" d="M252.33,8c-13.42-4.55-28.14,3.11-32.88,17.11s2.28,29,15.7,33.58S263.28,55.61,268,41.61,265.74,12.58,252.33,8Z"/><path class="cls-93" d="M252.14,8.59C239,4.14,224.61,11.64,220,25.33s2.24,28.4,15.36,32.85,27.53-3,32.17-16.74S265.26,13,252.14,8.59Z"/><path class="cls-94" d="M252,9.14c-12.83-4.35-26.91,3-31.45,16.37s2.19,27.77,15,32.12,26.91-3,31.45-16.37S264.79,13.49,252,9.14Z"/><path class="cls-95" d="M251.76,9.69c-12.54-4.25-26.3,2.91-30.73,16s2.14,27.14,14.68,31.39,26.3-2.92,30.74-16S264.31,13.94,251.76,9.69Z"/><path class="cls-96" d="M251.58,10.24c-12.25-4.15-25.69,2.85-30,15.63s2.08,26.5,14.33,30.66,25.69-2.85,30-15.63S263.83,14.39,251.58,10.24Z"/><path class="cls-97" d="M251.39,10.79c-12-4-25.08,2.78-29.31,15.26s2,25.87,14,29.92,25.08-2.77,29.31-15.25S263.35,14.85,251.39,10.79Z"/><path class="cls-98" d="M251.21,11.34c-11.67-3.95-24.47,2.71-28.6,14.88s2,25.25,13.66,29.2,24.46-2.71,28.59-14.88S262.87,15.3,251.21,11.34Z"/><path class="cls-99" d="M251,11.9C239.65,8,227.16,14.53,223.14,26.4S225.08,51,236.45,54.87s23.86-2.64,27.88-14.51S262.39,15.75,251,11.9Z"/><path class="cls-100" d="M250.83,12.44C239.75,8.69,227.59,15,223.67,26.58s1.89,24,13,27.74,23.24-2.57,27.16-14.14S261.92,16.2,250.83,12.44Z"/><path class="cls-101" d="M250.65,13C239.85,9.34,228,15.5,224.2,26.76s1.83,23.36,12.63,27S259.46,51.26,263.27,40,261.44,16.65,250.65,13Z"/><path class="cls-102" d="M250.46,13.54C240,10,228.44,16,224.73,26.94S226.52,49.66,237,53.22s22-2.44,25.73-13.39S261,17.11,250.46,13.54Z"/><path class="cls-103" d="M250.27,14.1c-10.21-3.46-21.41,2.37-25,13S227,49.21,237.2,52.67s21.41-2.37,25-13S260.48,17.56,250.27,14.1Z"/><path class="cls-104" d="M250.09,14.65c-9.92-3.36-20.8,2.3-24.31,12.65s1.69,21.46,11.61,24.82,20.79-2.31,24.3-12.65S260,18,250.09,14.65Z"/><path class="cls-105" d="M249.9,15.2c-9.63-3.26-20.19,2.24-23.59,12.28S228,48.31,237.57,51.57s20.19-2.24,23.59-12.28S259.52,18.46,249.9,15.2Z"/><path class="cls-106" d="M249.71,15.75c-9.33-3.16-19.57,2.17-22.87,11.9s1.59,20.2,10.92,23.37,19.57-2.18,22.87-11.91S259,18.91,249.71,15.75Z"/><path class="cls-107" d="M249.53,16.3c-9-3.06-19,2.1-22.16,11.54S228.91,47.4,238,50.46s19-2.1,22.16-11.53S258.57,19.37,249.53,16.3Z"/><path class="cls-108" d="M249.34,16.85c-8.75-3-18.35,2-21.44,11.17S229.38,47,238.13,49.91s18.35-2,21.45-11.16S258.09,19.82,249.34,16.85Z"/><path class="cls-109" d="M249.15,17.4c-8.46-2.86-17.74,2-20.73,10.79s1.44,18.31,9.9,21.17,17.74-2,20.73-10.79S257.61,20.27,249.15,17.4Z"/><path class="cls-110" d="M249,18c-8.17-2.77-17.13,1.89-20,10.41s1.39,17.68,9.56,20.44,17.12-1.89,20-10.41S257.13,20.72,249,18Z"/><path class="cls-111" d="M248.78,18.5c-7.88-2.66-16.51,1.83-19.3,10.05s1.34,17,9.21,19.71,16.52-1.83,19.31-10S256.65,21.17,248.78,18.5Z"/><path class="cls-112" d="M248.59,19.05c-7.58-2.56-15.9,1.77-18.59,9.68s1.3,16.41,8.88,19S254.78,46,257.47,38,256.17,21.63,248.59,19.05Z"/><path class="cls-113" d="M248.41,19.61c-7.3-2.47-15.3,1.69-17.88,9.3s1.25,15.78,8.54,18.24,15.29-1.68,17.87-9.29S255.69,22.08,248.41,19.61Z"/><path class="cls-114" d="M248.22,20.16c-7-2.38-14.68,1.63-17.16,8.93s1.19,15.15,8.19,17.52,14.68-1.63,17.16-8.93S255.22,22.53,248.22,20.16Z"/><path class="cls-115" d="M248,20.71a13.11,13.11,0,0,0-16.44,8.56,12.83,12.83,0,1,0,24.29,8.23A13.1,13.1,0,0,0,248,20.71Z"/><path class="cls-116" d="M247.85,21.26a12.54,12.54,0,0,0-15.73,8.19,12.27,12.27,0,1,0,23.23,7.87A12.54,12.54,0,0,0,247.85,21.26Z"/><path class="cls-117" d="M247.65,21.81a12,12,0,0,0-15,7.81,11.72,11.72,0,1,0,22.17,7.52A12,12,0,0,0,247.65,21.81Z"/><path class="cls-118" d="M247.47,22.36a11.4,11.4,0,0,0-14.29,7.45A11.15,11.15,0,1,0,254.29,37,11.4,11.4,0,0,0,247.47,22.36Z"/><path class="cls-119" d="M247.28,22.92A10.82,10.82,0,0,0,233.7,30a10.6,10.6,0,1,0,20.07,6.8A10.82,10.82,0,0,0,247.28,22.92Z"/><path class="cls-120" d="M247.09,23.47a10.25,10.25,0,0,0-12.86,6.69,10,10,0,1,0,19,6.44A10.24,10.24,0,0,0,247.09,23.47Z"/><path class="cls-121" d="M246.91,24a9.69,9.69,0,0,0-12.15,6.32,9.48,9.48,0,1,0,18,6.08A9.67,9.67,0,0,0,246.91,24Z"/><path class="cls-122" d="M246.72,24.56a9.12,9.12,0,0,0-11.43,6,8.93,8.93,0,1,0,16.9,5.73A9.15,9.15,0,0,0,246.72,24.56Z"/><path class="cls-123" d="M246.54,25.12a8.55,8.55,0,0,0-10.72,5.58,8.37,8.37,0,1,0,15.84,5.37A8.55,8.55,0,0,0,246.54,25.12Z"/><path class="cls-124" d="M246.35,25.67a8.15,8.15,0,1,0,4.78,10.22A8,8,0,0,0,246.35,25.67Z"/><path class="cls-125" d="M246.16,26.22a7.57,7.57,0,1,0,4.44,9.49A7.41,7.41,0,0,0,246.16,26.22Z"/><path class="cls-126" d="M246,26.77a7,7,0,1,0,4.1,8.76A6.85,6.85,0,0,0,246,26.77Z"/><path class="cls-127" d="M245.79,27.32a6.4,6.4,0,1,0,3.76,8A6.27,6.27,0,0,0,245.79,27.32Z"/><path class="cls-128" d="M245.6,27.87a5.82,5.82,0,1,0,3.42,7.3A5.72,5.72,0,0,0,245.6,27.87Z"/><path class="cls-129" d="M245.42,28.42A5.24,5.24,0,1,0,248.49,35,5.14,5.14,0,0,0,245.42,28.42Z"/><path class="cls-130" d="M245.23,29A4.66,4.66,0,1,0,248,34.81,4.56,4.56,0,0,0,245.23,29Z"/><path class="cls-131" d="M245,29.53a4.07,4.07,0,1,0,2.39,5.11A4,4,0,0,0,245,29.53Z"/><path class="cls-132" d="M244.86,30.07a3.5,3.5,0,1,0,2,4.38A3.43,3.43,0,0,0,244.86,30.07Z"/><path class="cls-133" d="M244.67,30.63a2.91,2.91,0,1,0,1.7,3.65A2.84,2.84,0,0,0,244.67,30.63Z"/><path class="cls-134" d="M244.48,31.18a2.33,2.33,0,1,0,1.37,2.92A2.28,2.28,0,0,0,244.48,31.18Z"/><path class="cls-135" d="M244.3,31.73a1.75,1.75,0,1,0,1,2.19A1.72,1.72,0,0,0,244.3,31.73Z"/><path class="cls-136" d="M244.11,32.28a1.14,1.14,0,0,0-1.43.74,1.12,1.12,0,1,0,2.11.72A1.13,1.13,0,0,0,244.11,32.28Z"/><path class="cls-137" d="M243.92,32.83a.56.56,0,0,0-.71.38.56.56,0,0,0,.34.72.58.58,0,0,0,.37-1.1Z"/></g><path class="cls-138" d="M224.64,54.2q-7.57,2.23-15.14,4.5l-15.13,4.51"/><path class="cls-138" d="M186.63,37.22q15.13-4.5,30.26-9"/><path class="cls-138" d="M192.71,48.56c.19-.05.27-.27.47-.32"/><path class="cls-138" d="M207.87,34.69c.42-.07.84-.09,1.26-.12.15,0,.22,0,.25.18.27,1.17.55,2.34.81,3.5.05.18.09.36.14.53"/><path class="cls-138" d="M218.21,40.21c.26-.1.53-.19.79-.3s.21,0,.28.12"/><path class="cls-138" d="M207.53,57.24c.11.26.21.53.31.8s.14.19.31.11.63-.31.95-.47c.72-.37,1.44-.75,2.17-1.11.52-.25,1-.53,1.55-.77.74-.33,1.44-.75,2.18-1.09.26-.12.27-.22.18-.46-.47-1.23-.94-2.47-1.4-3.71-.14-.37-.13-.38.25-.53l2.15-.94c1.09-.47,2.18-1,3.27-1.45.66-.29,1.32-.59,2-.86"/><path class="cls-139" d="M217.84,38.76c.11.49.24,1,.37,1.45.45,1.88.89,3.77,1.36,5.65a.37.37,0,0,1-.25.52c-2.06,1-4.1,2-6.16,3-.22.11-.26.21-.18.44.43,1.24.83,2.49,1.24,3.74.05.15.1.26-.11.36l-4.52,2.24a21,21,0,0,0-2.06,1.05,11.23,11.23,0,0,0-1.72.81c-.57.27-.55.28-.81-.3l-1.42-3.07c-.08-.16-.16-.14-.29-.09l-3.79,1.7-1,.45a1.21,1.21,0,0,1-.6.11c-1.08-.06-2.17-.12-3.25-.16a.34.34,0,0,1-.35-.25c-.75-2.27-1.52-4.54-2.28-6.81l0-.2c.25-.29.4-.66.73-.87a3,3,0,0,0,.1.32c.36,1,.73,1.93,1.1,2.89.45,1.18.9,2.35,1.36,3.53,0,.09,0,.25.21.14.64-.41,1.29-.8,1.94-1.21l.09,0,4.91-3a.42.42,0,0,0,.23-.33c0-.36.12-.71.2-1.15l1.25,2.93c.56,1.33,1.11,2.65,1.66,4,.05.13.11.15.23.08l1.09-.59L210,54.65c.46-.17.46-.17.32-.61l-.05-.14c-.36-1-.65-2.13-1-3.16l-.09-.29h0l0,0c-.16-.48-.29-1-.47-1.45-.1-.26,0-.35.2-.45l5.48-2.71c.14-.07.22-.14.14-.33-.44-1.06-.87-2.15-1.3-3.22-.29-.73-.58-1.45-.86-2.17-.06-.18-.14-.18-.29-.12l-1.22.46a9.92,9.92,0,0,0-1.32.49c-1,.37-2,.73-3,1.11-.24.09-.32.06-.4-.2-.65-2.1-1.32-4.21-2-6.31a3.94,3.94,0,0,0-.18-.48c-.05-.34-.21-.66-.28-1s-.14-.26-.35-.14q-3.12,1.77-6.26,3.51c-.2.11-.23.19-.12.39,1.23,2.25,2.44,4.52,3.66,6.77.11.2.08.26-.11.35-.6.27-1.19.57-1.79.85l-5.19,2.49c-.07,0-.16.15-.24,0l3.06-1.94c.84-.52,1.66-1.06,2.49-1.59.21-.11.22-.21.12-.42-1.1-2.28-2.18-4.57-3.28-6.85-.09-.2-.06-.29.14-.4l7.3-4.11a.71.71,0,0,1,.43-.11c1.16,0,2.33.09,3.49.12a.32.32,0,0,1,.35.25,11.39,11.39,0,0,0,.59,1.5A1.29,1.29,0,0,0,208,35c.4,1.1.81,2.19,1.21,3.29.31.87.31.87,1.17.54l.35-.07,3.64-1.08a.79.79,0,0,1,.48,0l2.75.83A.36.36,0,0,1,217.84,38.76Z"/><path class="cls-140" d="M203.86,35a3.41,3.41,0,0,0-.9,0c-.21,0-.46,0-.64.07l-.8.49c-.86.53-1.7,1.09-2.57,1.61-.22.13-.2.23-.12.4.92,2.23,1.85,4.45,2.78,6.68a.23.23,0,0,1-.1.35l-1.75,1.18c-.82.57-1.63,1.16-2.46,1.72s-1.48,1-2.23,1.52c-.28.18-.23.32-.14.53q.75,1.8,1.47,3.6a2.22,2.22,0,0,0,1,1c-.65.41-1.3.8-1.94,1.21-.18.11-.18,0-.21-.14-.46-1.18-.91-2.35-1.36-3.53-.37-1-.74-1.93-1.1-2.89a3,3,0,0,1-.1-.32c.19-.05.27-.27.47-.32.08.15.17,0,.24,0l5.19-2.49c.6-.28,1.19-.58,1.79-.85.19-.09.22-.15.11-.35-1.22-2.25-2.43-4.52-3.66-6.77-.11-.2-.08-.28.12-.39q3.14-1.74,6.26-3.51c.21-.12.29-.1.35.14S203.81,34.68,203.86,35Z"/><path class="cls-141" d="M221.43,46.76c-.66.27-1.32.57-2,.86-1.09.49-2.18,1-3.27,1.45L214,50c-.38.15-.39.16-.25.53.46,1.24.93,2.48,1.4,3.71.09.24.08.34-.18.46-.74.34-1.44.76-2.18,1.09-.53.24-1,.52-1.55.77-.73.36-1.45.74-2.17,1.11-.32.16-.64.3-.95.47s-.25,0-.31-.11-.2-.54-.31-.8a21,21,0,0,1,2.06-1.05L214.11,54c.21-.1.16-.21.11-.36-.41-1.25-.81-2.5-1.24-3.74-.08-.23,0-.33.18-.44,2.06-1,4.1-2,6.16-3a.37.37,0,0,0,.25-.52c-.47-1.88-.91-3.77-1.36-5.65.26-.1.53-.19.79-.3s.21,0,.28.12Z"/><path class="cls-141" d="M209.38,34.75c.27,1.17.55,2.34.81,3.5.05.18.09.36.14.53-.86.33-.86.33-1.17-.54-.4-1.1-.81-2.19-1.21-3.29a1.29,1.29,0,0,1-.08-.26c.42-.07.84-.09,1.26-.12C209.28,34.57,209.35,34.61,209.38,34.75Z"/><path class="cls-142" d="M214.43,45.46c.08.19,0,.26-.14.33l-5.48,2.71c-.23.1-.3.19-.2.45.18.48.31,1,.47,1.45,0,0,0,0,0,.05l.09.29c.32,1.06.61,2.14,1,3.19.1.3.23.53-.17.67,0,0,0,0,0,0l-2.88,1.51c-.52-1.32-1.05-2.63-1.57-3.94-.06-.16-.13-.22-.29-.13-.37.21-.74.4-1.12.6l-1.25-2.93c-.08.44-.15.79-.2,1.15a.42.42,0,0,1-.23.33l-4.91,3-.09,0a2.22,2.22,0,0,1-1-1q-.72-1.8-1.47-3.6c-.09-.21-.14-.35.14-.53.75-.49,1.49-1,2.23-1.52s1.64-1.15,2.46-1.72l1.75-1.18a.23.23,0,0,0,.1-.35c-.93-2.23-1.86-4.45-2.78-6.68-.08-.17-.1-.27.12-.4.87-.52,1.71-1.08,2.57-1.61l.8-.49c.18-.12.43-.06.64-.07a3.41,3.41,0,0,1,.9,0,3.94,3.94,0,0,1,.18.48c.67,2.1,1.34,4.21,2,6.31.08.26.16.29.4.2,1-.38,2-.74,3-1.11l1.29-.39a16.63,16.63,0,0,1,.53,2.19c.07.3.21.32.41.19a6,6,0,0,1,1.19-.47c.1-.05.22-.06.27-.18C213.56,43.31,214,44.4,214.43,45.46Z"/><path class="cls-140" d="M207.08,56.16l-1.09.59c-.12.07-.18,0-.23-.08-.55-1.33-1.1-2.65-1.66-4,.38-.2.75-.39,1.12-.6.16-.09.23,0,.29.13C206,53.53,206.56,54.84,207.08,56.16Z"/><path class="cls-140" d="M213.13,42.24c0,.12-.17.13-.27.18a6,6,0,0,0-1.19.47c-.2.13-.34.11-.41-.19a16.63,16.63,0,0,0-.53-2.19.38.38,0,0,1,0-.1L212,40c.15-.06.23-.06.29.12C212.55,40.79,212.84,41.51,213.13,42.24Z"/><path class="cls-143" d="M210,54.65s0,0,0,0c.4-.14.27-.37.17-.67-.36-1-.65-2.13-1-3.19.4,1,.69,2.11,1,3.16l.05.14C210.42,54.48,210.42,54.48,210,54.65Z"/><path class="cls-143" d="M210.76,40.41a.38.38,0,0,0,0,.1l-1.29.39A9.92,9.92,0,0,1,210.76,40.41Z"/><path class="cls-143" d="M209.1,50.44h0s0,0,0-.05Z"/><path class="cls-144" d="M12.8,89.78a5.11,5.11,0,0,0,3.54-.57,5.32,5.32,0,0,0,2.11-2.37,9,9,0,0,0,.78-3.37,14,14,0,0,0-.31-3.62h41v8.32H26.59A11.6,11.6,0,0,1,23.9,93.6a12.79,12.79,0,0,1-4.73,3.29,15.86,15.86,0,0,1-11.88-.11,11.07,11.07,0,0,1-4.72-3.73A13.06,13.06,0,0,1,.2,87.34a16.81,16.81,0,0,1,.34-6.76,18.14,18.14,0,0,1,3.4-6.86l6.54,5.08a9.48,9.48,0,0,0-1.85,3.36,7.84,7.84,0,0,0-.26,3.4,5,5,0,0,0,1.35,2.78A5.1,5.1,0,0,0,12.8,89.78Z"/><path class="cls-144" d="M87.74,88.17a6.65,6.65,0,0,1-1.8-.32,6.41,6.41,0,0,1-2.17-1.23,11,11,0,0,1-1.68,1,5,5,0,0,1-2.3.52H62V79.85h7.4l-5.9-14.56,7.7-3.19,7,17.41a2.29,2.29,0,0,0,1-.92,4,4,0,0,0,.38-2V59.79h8.29V76.6a4.57,4.57,0,0,0,.33,2,2,2,0,0,0,.85,1,2.71,2.71,0,0,0,1.21.31c.46,0,1,0,1.51,0v8.32Z"/><path class="cls-144" d="M101.68,97.58a4.68,4.68,0,0,1,.65,1.2,4.14,4.14,0,0,1,.23,1.39,3.83,3.83,0,0,1-1.19,2.83,3.93,3.93,0,0,1-2.85,1.15,4.11,4.11,0,0,1-3-1.15,3.82,3.82,0,0,1-1.18-2.83,4.14,4.14,0,0,1,.22-1.39,4.68,4.68,0,0,1,.65-1.2h-5V91.29h16.39v6.29Zm7.17-23.86v7.51a6.29,6.29,0,0,1-.66,2.88,7.51,7.51,0,0,1-1.68,2.18,8,8,0,0,1-2.18,1.39,5.38,5.38,0,0,1-2.11.49H91.81a1.44,1.44,0,0,1-.81-.25c-.23-.17-.35-.32-.35-.46v-7c0-.21.14-.37.41-.48a1.84,1.84,0,0,1,.75-.17h5.67a9.83,9.83,0,0,0,1.06-.06,1.94,1.94,0,0,0,1-.38,2.28,2.28,0,0,0,.72-.93,4.06,4.06,0,0,0,.29-1.68V73.72Z"/><path class="cls-144" d="M114.25,59.79h8.44V88.17h-8.44Z"/><path class="cls-144" d="M120,92.91c1.15-.92,2.15-1.8,3-2.62a12.62,12.62,0,0,0,2.23-2.87,14.84,14.84,0,0,0,1.48-3.91,34.35,34.35,0,0,0,.78-5.75l8.32.54a43.27,43.27,0,0,1-1,7.32,23.57,23.57,0,0,1-2.06,5.46,21,21,0,0,1-3.18,4.37,39.65,39.65,0,0,1-4.36,3.92Z"/><path class="cls-144" d="M163,59.79V80.38a9,9,0,0,1-.63,3.54,7.47,7.47,0,0,1-1.61,2.43,6.27,6.27,0,0,1-2.1,1.38,6,6,0,0,1-2.12.44H137.07V79.85h7.39l-6-14.56,7.76-3.19,7,17.41a2.19,2.19,0,0,0,1-.92,3.92,3.92,0,0,0,.39-2V59.79Z"/><path class="cls-138" d="M21.83,75.62H1.77"/><path class="cls-138" d="M1.77,58.39H21.83"/><path class="cls-138" d="M3.41,66.4c.12,0,.21-.12.34-.11"/><path class="cls-138" d="M15.15,60.7c.27,0,.53.11.8.16.09,0,.12.07.11.16,0,.76-.09,1.52-.14,2.28v.34"/><path class="cls-138" d="M20.45,65.94l.54,0c.09,0,.13,0,.14.12"/><path class="cls-138" d="M10.86,74.37c0,.18,0,.36,0,.54s0,.15.17.13.44-.08.67-.12l1.52-.28c.36,0,.71-.13,1.08-.18s1-.2,1.53-.27c.17,0,.2-.09.19-.25-.07-.83-.12-1.67-.18-2.51,0-.26,0-.26.25-.28L17.61,71l2.25-.29,1.36-.17"/><path class="cls-145" d="M20.49,65c0,.32,0,.64,0,1-.07,1.23-.14,2.46-.19,3.69,0,.19-.08.24-.26.27l-4.29.73c-.16,0-.2.08-.19.23,0,.84.05,1.67.08,2.51,0,.09,0,.17-.14.2q-1.58.25-3.15.54a13.72,13.72,0,0,0-1.45.26,8.08,8.08,0,0,0-1.2.18c-.39.07-.38.08-.44-.33-.09-.7-.2-1.41-.3-2.12,0-.11-.07-.12-.16-.11l-2.62.35-.69.09a.83.83,0,0,1-.38,0l-2-.69A.21.21,0,0,1,3,71.49c-.05-1.52-.11-3-.16-4.56l0-.13a2.42,2.42,0,0,1,.6-.4v.22l.15,1.95L3.74,71c0,.06,0,.16.11.12l1.4-.38h.06l3.53-.92A.26.26,0,0,0,9,69.64c.1-.21.2-.42.33-.67.09.71.16,1.36.24,2,.09.91.19,1.82.28,2.72,0,.09,0,.11.13.1l.77-.17,2-.39c.31,0,.31,0,.3-.32v-.09c0-.71,0-1.41-.07-2.12v-.19h0a0,0,0,0,1,0,0c0-.32,0-.65,0-1,0-.17.05-.22.2-.24l3.83-.65c.1,0,.16,0,.15-.18-.08-.72-.15-1.46-.21-2.2,0-.49-.09-1-.13-1.47,0-.12-.06-.14-.16-.13l-.83.06a6.77,6.77,0,0,0-.89.06l-2,.13c-.16,0-.21,0-.21-.19,0-1.4,0-2.8-.06-4.2,0-.12,0-.22,0-.33s0-.44,0-.66,0-.18-.18-.15c-1.48.34-3,.68-4.45,1-.14,0-.18.07-.14.22.34,1.59.66,3.19,1,4.78,0,.14,0,.18-.13.2l-1.25.19-3.61.57s-.12.07-.15,0L6,65.66c.6-.16,1.2-.34,1.8-.51.15,0,.18-.09.15-.24-.25-1.58-.49-3.18-.75-4.76,0-.14,0-.19.15-.22l5.19-1.18a.57.57,0,0,1,.29,0l2.1.71a.2.2,0,0,1,.17.21,8.59,8.59,0,0,0,.08,1v.18l.15,2.22c0,.58,0,.58.61.54l.23,0c.8,0,1.61,0,2.41,0a.49.49,0,0,1,.29.08l1.53,1A.25.25,0,0,1,20.49,65Z"/><path class="cls-146" d="M12.66,60.18a2.27,2.27,0,0,0-.56-.13.86.86,0,0,0-.41-.08l-.57.16c-.62.16-1.24.35-1.86.51-.15,0-.16.1-.15.22.16,1.53.33,3,.49,4.58,0,.1,0,.16-.13.19L8.19,66c-.6.2-1.2.41-1.8.6s-1.09.36-1.64.52c-.2.06-.2.16-.18.3.08.82.17,1.64.24,2.45a1.38,1.38,0,0,0,.44.81l-1.4.38c-.13,0-.1-.06-.11-.12l-.18-2.4-.15-1.95V66.4c.12,0,.21-.12.34-.11s.1,0,.15,0l3.61-.57,1.25-.19c.13,0,.16-.06.13-.2-.34-1.59-.66-3.19-1-4.78,0-.15,0-.19.14-.22,1.48-.32,3-.66,4.45-1,.14,0,.19,0,.18.15S12.69,60,12.66,60.18Z"/><path class="cls-147" d="M21.22,70.51l-1.36.17L17.61,71l-1.48.18c-.26,0-.27,0-.25.28.06.84.11,1.68.18,2.51,0,.16,0,.22-.19.25-.52.07-1,.2-1.53.27s-.72.13-1.08.18l-1.52.28c-.23,0-.45.07-.67.12s-.16,0-.17-.13,0-.36,0-.54a13.72,13.72,0,0,1,1.45-.26q1.57-.28,3.15-.54c.15,0,.14-.11.14-.2,0-.84,0-1.67-.08-2.51,0-.15,0-.21.19-.23L20,69.9c.18,0,.25-.08.26-.27,0-1.23.12-2.46.19-3.69l.54,0c.09,0,.13,0,.14.12Z"/><path class="cls-147" d="M16.06,61c0,.76-.09,1.52-.14,2.28,0,.11,0,.23,0,.34-.58,0-.58,0-.61-.54l-.15-2.22V60.7c.27,0,.53.11.8.16C16,60.89,16.07,60.93,16.06,61Z"/><path class="cls-148" d="M17.2,68.45c0,.13-.05.16-.15.18l-3.83.65c-.15,0-.22.07-.2.24,0,.32,0,.65,0,1a0,0,0,0,0,0,0v.19c0,.71,0,1.42,0,2.12,0,.21,0,.36-.22.38,0,0,0,0,0,0l-2,.39L10.54,71c0-.11,0-.16-.16-.13L9.6,71c-.08-.65-.15-1.3-.24-2-.13.25-.23.46-.33.67a.26.26,0,0,1-.19.15l-3.53.92H5.25a1.38,1.38,0,0,1-.44-.81c-.07-.81-.16-1.63-.24-2.45,0-.14,0-.24.18-.3.55-.16,1.09-.34,1.64-.52s1.2-.4,1.8-.6l1.28-.4c.12,0,.14-.09.13-.19-.16-1.53-.33-3-.49-4.58,0-.12,0-.18.15-.22.62-.16,1.24-.35,1.86-.51l.57-.16a.86.86,0,0,1,.41.08,2.27,2.27,0,0,1,.56.13c0,.11,0,.21,0,.33,0,1.4.05,2.8.06,4.2,0,.17,0,.2.21.19l2-.13h.86a11.51,11.51,0,0,1-.07,1.43c0,.19.06.23.21.19a4.45,4.45,0,0,1,.81-.08c.07,0,.15,0,.2-.06C17.05,67,17.12,67.73,17.2,68.45Z"/><path class="cls-146" d="M10.78,73.63,10,73.8c-.09,0-.12,0-.13-.1-.09-.9-.19-1.81-.28-2.72l.78-.16c.12,0,.15,0,.16.13Z"/><path class="cls-146" d="M17,66.25c0,.07-.13.06-.2.06a4.45,4.45,0,0,0-.81.08c-.15,0-.23,0-.21-.19a11.51,11.51,0,0,0,.07-1.43l0-.06.83-.06c.1,0,.15,0,.16.13C16.9,65.27,16.94,65.76,17,66.25Z"/><path class="cls-149" d="M12.81,73.24s0,0,0,0c.27,0,.23-.17.22-.38,0-.7,0-1.41,0-2.12.06.71,0,1.41.07,2.12v.09C13.12,73.22,13.12,73.22,12.81,73.24Z"/><path class="cls-149" d="M15.87,64.71l0,.06H15A6.77,6.77,0,0,1,15.87,64.71Z"/><path class="cls-149" d="M13.05,70.52h0a0,0,0,0,1,0,0A0,0,0,0,0,13.05,70.52Z"/></svg>